<svg xmlns="http://www.w3.org/2000/svg" xmlns:xlink="http://www.w3.org/1999/xlink" id="Layer_1" x="0px" y="0px" viewBox="0 0 406.3 257.6" style="enable-background:new 0 0 406.3 257.6;" xml:space="preserve"><style type="text/css">	.st0{enable-background:new    ;}	.st1{fill:#999999;}	.st2{fill:#333333;}	.st3{fill:#DD1919;}</style><g class="st0">	<path class="st1" d="M141.5,146.8c0,2.3-0.7,4.1-2.2,5.3s-3.5,1.8-6.1,1.8h-1.9v7.6h-4.5v-21.4h6.8c2.6,0,4.6,0.6,5.9,1.7  S141.5,144.5,141.5,146.8z M131.3,150.2h1.5c1.4,0,2.4-0.3,3.1-0.8c0.7-0.6,1-1.4,1-2.4c0-1.1-0.3-1.9-0.9-2.4s-1.5-0.8-2.7-0.8  h-2.1V150.2z"></path>	<path class="st1" d="M160.1,153.3c0,2.7-0.7,4.8-2.1,6.3s-3.4,2.3-5.9,2.3c-1.6,0-3-0.3-4.2-1c-1.2-0.7-2.1-1.7-2.8-3s-1-2.8-1-4.5  c0-2.7,0.7-4.8,2.1-6.2s3.4-2.2,5.9-2.2c1.6,0,3,0.3,4.2,1s2.1,1.7,2.8,2.9S160.1,151.6,160.1,153.3z M148.8,153.3  c0,1.6,0.3,2.8,0.8,3.7s1.4,1.2,2.6,1.2c1.2,0,2-0.4,2.6-1.2s0.8-2.1,0.8-3.7c0-1.6-0.3-2.8-0.8-3.6s-1.4-1.2-2.6-1.2  c-1.2,0-2.1,0.4-2.6,1.2C149.1,150.4,148.8,151.7,148.8,153.3z"></path>	<path class="st1" d="M168.3,161.5h-4.5v-22.8h4.5V161.5z"></path>	<path class="st1" d="M172.8,140.9c0-1.5,0.8-2.2,2.4-2.2s2.4,0.7,2.4,2.2c0,0.7-0.2,1.2-0.6,1.6c-0.4,0.4-1,0.6-1.8,0.6  C173.6,143.1,172.8,142.4,172.8,140.9z M177.4,161.5H173v-16.4h4.5V161.5z"></path>	<path class="st1" d="M186.4,152.6l1.9-2.5l4.6-5h5l-6.5,7.1l6.9,9.3h-5.2l-4.7-6.6l-1.9,1.5v5.1h-4.5v-22.8h4.5v10.2L186.4,152.6  L186.4,152.6z"></path>	<path class="st1" d="M205.2,161.5h-4.5v-22.8h4.5V161.5z"></path>	<path class="st1" d="M209.7,140.9c0-1.5,0.8-2.2,2.4-2.2s2.4,0.7,2.4,2.2c0,0.7-0.2,1.2-0.6,1.6c-0.4,0.4-1,0.6-1.8,0.6  C210.5,143.1,209.7,142.4,209.7,140.9z M214.3,161.5h-4.5v-16.4h4.5V161.5z"></path>	<path class="st1" d="M234.2,161.5h-4.5v-9.6c0-1.2-0.2-2.1-0.6-2.7c-0.4-0.6-1.1-0.9-2-0.9c-1.3,0-2.2,0.4-2.7,1.3  c-0.6,0.8-0.8,2.2-0.8,4.2v7.7H219v-16.4h3.4l0.6,2.1h0.2c0.5-0.8,1.2-1.4,2.1-1.8s1.9-0.6,3-0.6c1.9,0,3.3,0.5,4.3,1.5  s1.5,2.5,1.5,4.5V161.5z"></path>	<path class="st1" d="M238.6,140.9c0-1.5,0.8-2.2,2.4-2.2s2.4,0.7,2.4,2.2c0,0.7-0.2,1.2-0.6,1.6c-0.4,0.4-1,0.6-1.8,0.6  C239.4,143.1,238.6,142.4,238.6,140.9z M243.2,161.5h-4.5v-16.4h4.5V161.5z"></path>	<path class="st1" d="M252.2,152.6l1.9-2.5l4.6-5h5l-6.5,7.1l6.9,9.3H259l-4.7-6.6l-1.9,1.5v5.1h-4.5v-22.8h4.5v10.2L252.2,152.6  L252.2,152.6z"></path>	<path class="st1" d="M276.9,161.5l-0.9-2.2h-0.1c-0.8,0.9-1.5,1.6-2.3,2c-0.8,0.4-1.8,0.5-3.1,0.5c-1.6,0-2.8-0.4-3.7-1.3  s-1.4-2.2-1.4-3.8c0-1.7,0.6-3,1.8-3.8c1.2-0.8,3-1.3,5.5-1.4l2.8-0.1v-0.7c0-1.7-0.8-2.5-2.5-2.5c-1.3,0-2.8,0.4-4.6,1.2l-1.5-3  c1.9-1,4-1.5,6.3-1.5c2.2,0,3.9,0.5,5.1,1.4s1.8,2.4,1.8,4.4v10.9H276.9z M275.6,153.9l-1.7,0.1c-1.3,0-2.3,0.3-2.9,0.7s-1,1.1-1,2  c0,1.3,0.7,1.9,2.2,1.9c1,0,1.9-0.3,2.5-0.9s0.9-1.4,0.9-2.4V153.9z"></path></g><g class="st0">	<path class="st2" d="M49.1,210.3c0,8.5-2.4,14.9-7.2,19.4s-11.8,6.8-20.9,6.8H6.5v-51.4h16.1c8.4,0,14.9,2.2,19.5,6.6  S49.1,202.4,49.1,210.3z M37.8,210.6c0-11-4.9-16.6-14.6-16.6h-5.8v33.5H22C32.5,227.5,37.8,221.9,37.8,210.6z"></path>	<path class="st2" d="M80.9,196.5c1.5,0,2.7,0.1,3.6,0.3l-0.8,10.1c-0.9-0.2-1.9-0.4-3.2-0.4c-3.4,0-6.1,0.9-8,2.6  c-1.9,1.8-2.9,4.2-2.9,7.4v20H58.9v-39.3H67l1.6,6.6h0.5c1.2-2.2,2.9-4,4.9-5.3S78.4,196.5,80.9,196.5z"></path>	<path class="st2" d="M90.1,231.5c0-2,0.5-3.5,1.6-4.5s2.6-1.5,4.6-1.5c1.9,0,3.5,0.5,4.5,1.5c1.1,1,1.6,2.5,1.6,4.4  c0,1.9-0.5,3.3-1.6,4.4c-1.1,1.1-2.6,1.6-4.5,1.6c-2,0-3.5-0.5-4.6-1.6C90.6,234.8,90.1,233.4,90.1,231.5z"></path>	<path class="st2" d="M163.2,236.5l-3.7-12.2h-18.7l-3.7,12.2h-11.7l18.1-51.6h13.3l18.2,51.6H163.2z M156.8,215.1  c-3.4-11.1-5.4-17.4-5.8-18.8c-0.4-1.5-0.7-2.6-0.9-3.4c-0.8,3-3,10.4-6.6,22.3H156.8z"></path>	<path class="st2" d="M191.3,236.5h-10.7v-54.7h10.7V236.5z"></path>	<path class="st2" d="M241.9,236.5H231v-42.3h-14v-9.1h38.8v9.1h-14V236.5z"></path>	<path class="st2" d="M287.9,236.5l-2.1-5.3h-0.3c-1.8,2.3-3.7,3.8-5.6,4.7s-4.4,1.3-7.5,1.3c-3.8,0-6.7-1.1-8.9-3.2  s-3.3-5.2-3.3-9.2c0-4.2,1.5-7.2,4.4-9.2s7.3-3.1,13.2-3.3l6.8-0.2v-1.7c0-4-2-6-6.1-6c-3.1,0-6.8,0.9-11.1,2.8l-3.6-7.2  c4.5-2.4,9.5-3.6,15-3.6c5.3,0,9.3,1.1,12.1,3.4s4.2,5.8,4.2,10.5v26.2H287.9z M284.7,218.3l-4.1,0.1c-3.1,0.1-5.4,0.7-7,1.7  s-2.3,2.6-2.3,4.7c0,3,1.7,4.5,5.2,4.5c2.5,0,4.5-0.7,6-2.1s2.2-3.3,2.2-5.7V218.3z"></path>	<path class="st2" d="M338.7,236.5l-3-13.7l-4.1-17.4h-0.2l-7.2,31.1h-11.5l-11.2-39.3h10.7l4.5,17.4c0.7,3.1,1.5,7.4,2.2,12.9h0.2  c0.1-1.8,0.5-4.6,1.2-8.5l0.6-3l4.9-18.8h11.8l4.6,18.8c0.1,0.5,0.2,1.3,0.4,2.3s0.4,2.1,0.6,3.2s0.4,2.3,0.5,3.3s0.2,2,0.3,2.6  h0.2c0.2-1.7,0.6-4,1.1-6.9s0.9-4.9,1.2-6l4.7-17.4h10.5l-11.3,39.3H338.7z"></path>	<path class="st2" d="M367.6,187c0-3.5,1.9-5.2,5.8-5.2s5.8,1.7,5.8,5.2c0,1.7-0.5,3-1.5,3.9s-2.4,1.4-4.4,1.4  C369.5,192.3,367.6,190.6,367.6,187z M378.7,236.5H368v-39.3h10.7V236.5z"></path>	<path class="st2" d="M400.7,236.5H390v-54.7h10.7V236.5z"></path></g><path class="st3" d="M221.4,32.2l-17.5,2.1c-3.3-3.9-6.6-7.7-9.8-11.6c-2-2.5-4.1-4.9-7-6.4c-3.7-1.9-7.9-2.7-12.1-2.4 c-5.2,0.3-10.2,1.9-14.5,4.7c-2.5,1.6-4.5,3.8-5.8,6.4c-2.3,4.8-3.4,10.1-3,15.4c0.4,8.4,3.5,15.9,7.5,23.1 c4.8,8.4,10.6,16.3,17.3,23.4c4.4,4.8,9,9.2,14,13.4c2,1.6,4.2,3.1,6.5,4.4c3.7,2.3,8.3,2.4,12.2,0.3c2.6-1.3,5.1-2.9,7.3-4.9 c10.3-9.1,19.7-19.1,27.3-30.7c4.7-7.2,8.6-14.8,10.3-23.4c0.8-3.6,1-7.3,0.6-10.9c-0.4-2.8-1.1-5.6-2.1-8.2c-1.6-4.3-4.8-7.7-9-9.6 c-5.5-2.9-11.8-4-18-3.1c-3.4,0.5-6.6,2-9,4.5c-0.7,0.7-1.4,1.4-2.3,2.2l-9-10.4c3.3-4.2,7.9-7.3,13.1-8.9 c9.6-2.8,19.8-2.1,28.9,1.9c3.6,1.5,7,3.6,10,6.1c4,3.5,7,8,8.7,13.1c2.7,7.1,3.5,14.9,2.3,22.4c-1.5,10.8-5.8,20.5-11.5,29.6 c-8.6,13.9-19.6,25.7-31.9,36.4c-3.4,3-7.2,5.4-11.4,7.1c-7.2,3.1-15.5,2.8-22.5-0.8c-4.1-2.1-7.9-4.7-11.3-7.7 c-9.7-8.4-18.4-17.9-25.9-28.4c-6-8.4-11-17.4-13.9-27.4c-2.5-8.4-3.3-16.8-1.3-25.4c1.2-5.9,3.8-11.4,7.6-16 c2.2-2.5,4.8-4.7,7.7-6.4c5-3.1,10.6-5.1,16.5-5.9c10.4-1.3,20.2,0.2,28.6,7.2c1.4,1.2,2.7,2.4,3.9,3.8c5.2,5.8,10.3,11.6,15.5,17.4 C219.3,29.7,220.2,30.8,221.4,32.2"></path></svg>