<svg xmlns:xlink="http://www.w3.org/1999/xlink" xmlns="http://www.w3.org/2000/svg" class="h-logo w-logo lg:w-logolg lg:h-logolg xl:mr-2" id="logo" data-name="logo" viewBox="0 0 57.93 24" width="2000" height="828.59"><defs></defs><title>Klix.ba</title><polygon class="cls-1" points="42.81 4.37 38.48 8.69 43.98 14.18 38.48 19.68 42.81 24 52.63 14.18 42.81 4.37" fill="#1599C9"></polygon><rect class="cls-2" x="29.44" y="4.74" width="6.32" height="18.95" fill="#6A696E"></rect><rect class="cls-2" x="20.33" width="6.32" height="23.68" fill="#6A696E"></rect><rect class="cls-2" width="6.32" height="23.68" fill="#6A696E"></rect><polygon class="cls-3" points="17.86 8.76 13.58 4.47 8.08 9.97 3.8 14.25 8.08 18.54 13.24 23.7 17.53 23.7 17.53 19.41 12.37 14.25 17.86 8.76" fill="#6A696E"></polygon><polygon class="cls-2" points="57.93 8.69 53.18 13.56 48.86 9.24 53.6 4.37 57.93 8.69" fill="#6A696E"></polygon><polygon class="cls-2" points="48.86 19.12 53.6 24 57.93 19.68 53.18 14.8 48.86 19.12" fill="#6A696E"></polygon></svg>